<?xml version="1.0" encoding="UTF-8" standalone="no" ?>
<svg xmlns="http://www.w3.org/2000/svg" xmlns:xlink="http://www.w3.org/1999/xlink" version="1.1" width="500" height="500" viewBox="0 0 500 500" xml:space="preserve">
<desc>LEVI Icon with rounded corners</desc>
<defs>
<clipPath id="roundedCorners">
<rect x="0" y="0" width="500" height="500" rx="80" ry="80" />
</clipPath>
</defs>
<g clip-path="url(#roundedCorners)">
<g transform="matrix(1 0 0 1 250 250)">
<rect style="stroke: none; fill: rgb(221,100,10); fill-rule: nonzero; opacity: 1;" x="-250" y="-250" rx="0" ry="0" width="500" height="500" />
</g>
<g transform="matrix(1 0 0 1 249.49999831772465 301.8854680617788)" style=""><path fill="#545454" opacity="1" d="M-25.83 19.32L-25.89 17.83C-26.07 17.35-26.31 16.81-26.31 16.33L-26.31 16.09C-26.31 15.68-25.95 15.50-25.89 15.20L-25.83 14.54L-25.89 14.00C-25.95 13.70-26.31 12.75-26.31 12.09C-26.31 11.55-26.01 11.79-25.83 11.31C-26.91 11.31-27.99 11.37-29.12 11.49L-29.42 11.55C-30.20 11.61-31.04 11.61-31.93 11.61L-34.56 11.61C-36.30 11.61-37.97 11.55-39.65 11.73C-39.83 10.83-39.77 9.88-39.77 8.92L-39.77-5.43L-38.99-13.87L-39.77-19.25C-40.31-18.53-40.07-16.86-40.07-15.12C-40.48-15.54-40.84-15.54-41.02-16.20L-41.08-16.80L-41.02-18.05C-41.02-18.41-41.08-18.71-41.20-18.95C-41.26-19.13-41.32-19.25-41.50-19.25C-41.68-19.25-41.74-18.77-41.92-18.47C-42.10-18.23-42.34-18.11-42.64-18.11L-43.47-18.17C-44.37-18.17-45.21-18.53-46.17-18.53C-46.46-18.53-46.82-18.47-47.18-18.35L-47.18 12.75L-47.36 14.30C-47.78 14.30-47.96 14.30-48.26 14.48C-48.38 14.54-48.44 14.60-48.44 14.66C-48.44 14.84-48.02 15.02-47.84 15.20C-47.54 15.44-47.54 15.80-47.54 16.21L-47.54 16.63C-47.48 17.05-47.48 17.47-47.48 17.89C-47.48 18.79-47.48 19.62-47.18 20.34L-37.97 19.56C-36.12 19.38-34.33 19.38-32.47 19.32Z"/><path fill="#545454" opacity="1" d="M-1.85 12.75C-3.41 12.33-4.90 12.03-6.34 11.85C-8.25 11.55-8.91 11.55-10.76 11.37C-11.90 11.31-13.16 11.25-14.29 11.25C-14.29 9.10-14.17 7.06-13.99 4.97L-13.93 3.90C-12.92 3.84-11.84 3.78-10.88 3.60L-2.27 2.94L-2.33 1.74C-2.51 1.26-2.75 0.79-2.75 0.25C-2.75-0.29-2.51-0.41-2.45-0.83L-2.45-1.13C-2.45-1.37-2.45-1.67-2.51-1.91C-2.51-2.08-2.87-3.28-2.87-4.00C-2.87-4.30-2.81-4.48-2.69-4.48C-3.41-4.42-4.19-4.36-5.08-4.18L-8.73-3.94C-9.99-3.94-11.24-4.00-12.62-3.82L-13.45-3.76L-13.45-9.86C-12.92-9.86-12.38-9.80-11.84-9.74C-9.63-9.74-7.77-9.50-5.92-9.32C-4.54-9.26-3.35-9.32-1.97-9.14L0.48-9.02C0.36-9.56-0.60-9.44-1.32-9.62C-1.14-9.92-1.14-10.34-0.72-10.40L0.18-10.34C0.36-10.34 0.48-10.34 0.54-10.40C0.66-10.46 0.72-10.52 0.72-10.58C0.72-10.76 0.48-10.88 0.42-11.05C0.36-11.17 0.36-11.35 0.36-11.53C0.36-11.83 0.42-12.13 0.48-12.55C0.66-13.09 0.72-13.63 0.90-14.28C1.02-14.76 1.08-15.24 1.08-15.72L1.08-16.02C-0.30-16.32-1.55-16.50-2.93-16.74C-4.19-16.92-5.56-16.97-6.82-17.03C-8.43-17.09-9.99-17.15-11.60-17.15L-15.01-17.15C-15.01-17.69-15.01-18.29-15.19-18.71C-15.25-18.95-15.37-19.07-15.43-19.07C-15.61-19.07-15.61-18.47-15.85-18.17C-16.03-17.93-16.21-17.81-16.44-17.81L-17.10-17.87L-17.34-17.87C-17.82-17.87-18.24-17.99-18.78-18.05L-19.32-18.11C-19.73-18.11-20.09-18.05-20.39-17.87C-20.33-16.26-20.27-14.82-20.27-13.21L-20.27-9.92C-20.27-7.35-20.45-4.72-20.51-2.08L-20.93 7.84C-20.99 9.58-21.05 11.25-21.05 13.10C-21.05 15.26-20.99 17.41-20.93 19.56C-20.87 19.50-20.75 19.50-20.63 19.50L-20.15 19.56C-20.09 19.56-19.97 19.50-19.79 19.44C-19.32 19.02-18.96 18.55-18.42 18.55L-17.40 19.38C-17.22 19.44-17.10 19.50-17.04 19.50C-16.86 19.50-16.62 19.38-16.44 19.32C-16.27 19.32-15.79 18.96-15.13 18.79L-14.65 18.67L-14.05 18.55L-13.51 18.55C-11.12 18.55-10.05 18.91-5.92 19.62C-4.48 19.86-2.93 19.98-1.44 20.40C-0.42 20.70 0.48 20.70 1.44 20.94C1.50 20.40 0.24 20.28-0.66 19.98C-0.36 19.74-0.24 19.44 0.18 19.26C0.60 19.26 0.96 19.56 1.38 19.56C1.50 19.56 1.55 19.56 1.61 19.50C1.79 19.44 1.85 19.38 1.85 19.32C1.85 19.14 1.67 19.02 1.50 18.79L1.44 18.49C1.44 18.07 1.61 17.71 1.67 17.41C1.85 16.75 2.09 16.27 2.33 15.62C2.51 15.14 2.57 14.66 2.57 14.12L2.57 13.88C1.08 13.46-0.36 13.16-1.85 12.75ZM-2.69-4.48C-2.63-4.48-2.63-4.48-2.63-4.48Z"/><path fill="#545454" opacity="1" d="M32.71-19.85L32.41-19.79C31.99-19.61 31.51-19.43 31.10-19.43C30.92-19.43 30.80-19.49 30.62-19.55C30.44-19.73 30.38-20.38 30.08-20.62C29.90-20.92 29.42-20.92 29.12-20.92C28.82-20.92 28.29-20.74 27.63-20.74C26.91-20.80 26.85-21.94 26.73-21.82C26.07-19.91 25.53-17.99 24.88-16.02C23.92-13.15 22.72-10.46 21.59-7.65C20.33-4.60 19.02-1.67 17.88 1.44C17.64 2.10 17.46 2.64 17.28 3.30C16.56 0.73 15.97-1.79 15.31-4.42C14.65-6.99 13.81-9.62 13.10-12.25C12.68-13.98 12.02-15.48 11.54-17.15C11.06-16.32 11.90-14.82 12.20-13.33C11.90-13.51 11.54-13.39 11.12-14.04C10.70-14.70 10.70-15.90 10.29-16.56C10.17-16.74 10.11-16.80 10.05-16.80C9.87-16.80 9.93-16.20 9.75-15.90C9.45-15.24 8.85-15.36 8.43-15.30C7.30-15.00 5.92-15.30 4.96-14.52L8.67-0.11C9.45 2.76 10.29 5.75 11.18 8.68C12.14 12.09 13.22 15.56 14.47 18.96L15.49 18.43C15.91 17.95 16.21 17.29 16.86 17.23L17.94 17.65C18.36 17.65 18.66 17.47 18.96 17.29C19.02 17.29 19.20 16.99 19.49 16.81C19.91 16.87 20.15 16.99 20.57 16.99C20.75 16.99 20.93 16.99 21.05 16.93C21.11 16.63 21.17 16.39 21.17 16.27C21.71 13.76 22.37 11.49 23.14 9.16C24.04 6.59 24.94 4.07 25.89 1.50C27.09-1.67 28.35-4.78 29.60-8.06L30.02-9.14C31.39-12.55 32.59-16.02 33.73-19.61C33.31-19.61 33.13-19.85 32.71-19.85Z"/><path fill="#545454" opacity="1" d="M40.36-17.93L40.36-17.87C40.42-12.61 40.07-7.29 39.89-1.97C39.71 1.38 39.71 4.55 39.53 7.90C39.35 11.73 39.17 15.56 39.11 19.56C39.59 19.32 40.07 19.68 40.48 19.38C41.14 18.96 41.68 18.49 42.34 18.67C42.76 18.73 43.00 19.32 43.30 19.56C43.71 19.74 44.13 19.62 44.55 19.56C44.73 19.56 46.52 18.37 47.36 19.80C47.42 17.71 47.36 15.86 47.36 13.76C47.36 10.83 47.54 7.96 47.84 5.09C48.02 1.92 48.32-1.13 48.38-4.24C48.44-7.29 48.38-10.10 48.44-13.15C48.50-15.12 48.20-16.92 48.20-18.77C47.54-17.81 47.90-16.32 47.84-14.46C47.42-14.88 47.06-14.94 46.82-15.66C46.64-16.44 46.94-17.75 46.70-18.53C46.40-19.31 44.79-17.75 44.31-17.75C43.06-17.75 41.62-18.47 40.36-17.93Z"/></g>
<g transform="matrix(1 0 0 1 249.49852289512074 352.00395840979417)" style=""><path fill="#000000" opacity="1" d="M-163.18 4.68L-168.69 4.68L-168.69-5.09L-167.45-5.09L-167.45 3.62L-163.18 3.62L-163.18 4.68Z"/><path fill="#000000" opacity="1" d="M-158.23 4.86L-158.23 4.86Q-159.15 4.86-159.92 4.50Q-160.69 4.14-161.24 3.48Q-161.79 2.82-162.10 1.87Q-162.40 0.93-162.40-0.25L-162.40-0.25Q-162.40-1.43-162.10-2.36Q-161.79-3.29-161.24-3.94Q-160.69-4.59-159.92-4.93Q-159.15-5.27-158.23-5.27L-158.23-5.27Q-157.31-5.27-156.54-4.92Q-155.77-4.57-155.21-3.92Q-154.65-3.28-154.35-2.34Q-154.04-1.41-154.04-0.25L-154.04-0.25Q-154.04 0.93-154.35 1.87Q-154.65 2.82-155.21 3.48Q-155.77 4.14-156.54 4.50Q-157.31 4.86-158.23 4.86ZM-158.23 3.77L-158.23 3.77Q-157.57 3.77-157.05 3.49Q-156.52 3.21-156.14 2.68Q-155.76 2.15-155.55 1.41Q-155.34 0.67-155.34-0.25L-155.34-0.25Q-155.34-1.16-155.55-1.89Q-155.76-2.62-156.14-3.13Q-156.52-3.63-157.05-3.91Q-157.57-4.18-158.23-4.18L-158.23-4.18Q-158.89-4.18-159.41-3.91Q-159.94-3.63-160.32-3.13Q-160.70-2.62-160.91-1.89Q-161.12-1.16-161.12-0.25L-161.12-0.25Q-161.12 0.67-160.91 1.41Q-160.70 2.15-160.32 2.68Q-159.94 3.21-159.41 3.49Q-158.89 3.77-158.23 3.77Z"/><path fill="#000000" opacity="1" d="M-148.10 4.86L-148.10 4.86Q-149.07 4.86-149.88 4.52Q-150.69 4.17-151.27 3.53Q-151.85 2.88-152.18 1.93Q-152.51 0.99-152.51-0.21L-152.51-0.21Q-152.51-1.38-152.17-2.32Q-151.84-3.26-151.24-3.92Q-150.65-4.57-149.82-4.92Q-148.99-5.27-148.02-5.27L-148.02-5.27Q-147.52-5.27-147.09-5.17Q-146.67-5.06-146.32-4.89Q-145.97-4.72-145.69-4.51Q-145.42-4.29-145.21-4.07L-145.21-4.07L-145.89-3.26Q-146.27-3.65-146.76-3.92Q-147.25-4.18-147.99-4.18L-147.99-4.18Q-148.74-4.18-149.33-3.91Q-149.93-3.63-150.35-3.12Q-150.77-2.61-151.00-1.88Q-151.23-1.15-151.23-0.24L-151.23-0.24Q-151.23 0.69-151.01 1.43Q-150.80 2.16-150.39 2.68Q-149.98 3.21-149.37 3.49Q-148.77 3.77-147.98 3.77L-147.98 3.77Q-147.46 3.77-146.99 3.62Q-146.52 3.46-146.22 3.19L-146.22 3.19L-146.22 0.64L-148.29 0.64L-148.29-0.39L-145.09-0.39L-145.09 3.73Q-145.57 4.22-146.34 4.54Q-147.11 4.86-148.10 4.86Z"/><path fill="#000000" opacity="1" d="M-141.51 4.68L-142.75 4.68L-142.75-5.09L-141.51-5.09L-141.51 4.68Z"/><path fill="#000000" opacity="1" d="M-136.12 4.86L-136.12 4.86Q-137.15 4.86-138.03 4.47Q-138.91 4.08-139.55 3.41L-139.55 3.41L-138.80 2.55Q-138.28 3.10-137.57 3.44Q-136.86 3.77-136.10 3.77L-136.10 3.77Q-135.14 3.77-134.60 3.33Q-134.06 2.89-134.06 2.18L-134.06 2.18Q-134.06 1.80-134.19 1.54Q-134.32 1.28-134.53 1.10Q-134.75 0.91-135.05 0.76Q-135.34 0.61-135.69 0.45L-135.69 0.45L-137.09-0.16Q-137.43-0.31-137.79-0.52Q-138.15-0.73-138.43-1.03Q-138.71-1.32-138.89-1.73Q-139.07-2.14-139.07-2.68L-139.07-2.68Q-139.07-3.23-138.84-3.71Q-138.61-4.18-138.20-4.53Q-137.79-4.89-137.23-5.08Q-136.67-5.27-136.00-5.27L-136.00-5.27Q-135.12-5.27-134.38-4.94Q-133.63-4.60-133.11-4.07L-133.11-4.07L-133.78-3.26Q-134.23-3.69-134.77-3.94Q-135.31-4.18-136.00-4.18L-136.00-4.18Q-136.82-4.18-137.32-3.80Q-137.82-3.42-137.82-2.75L-137.82-2.75Q-137.82-2.40-137.68-2.15Q-137.53-1.91-137.30-1.72Q-137.06-1.53-136.77-1.39Q-136.49-1.25-136.19-1.13L-136.19-1.13L-134.81-0.53Q-134.39-0.36-134.02-0.12Q-133.65 0.11-133.38 0.41Q-133.11 0.72-132.95 1.13Q-132.80 1.54-132.80 2.07L-132.80 2.07Q-132.80 2.65-133.03 3.16Q-133.26 3.67-133.69 4.05Q-134.12 4.43-134.73 4.64Q-135.34 4.86-136.12 4.86Z"/><path fill="#000000" opacity="1" d="M-127.89 4.68L-129.15 4.68L-129.15-4.05L-132.10-4.05L-132.10-5.09L-124.94-5.09L-124.94-4.05L-127.89-4.05L-127.89 4.68Z"/><path fill="#000000" opacity="1" d="M-121.95 4.68L-123.19 4.68L-123.19-5.09L-121.95-5.09L-121.95 4.68Z"/><path fill="#000000" opacity="1" d="M-115.57 4.86L-115.57 4.86Q-116.50 4.86-117.27 4.52Q-118.05 4.17-118.62 3.53Q-119.19 2.88-119.51 1.93Q-119.83 0.99-119.83-0.21L-119.83-0.21Q-119.83-1.38-119.51-2.32Q-119.18-3.26-118.60-3.92Q-118.02-4.57-117.23-4.92Q-116.44-5.27-115.50-5.27L-115.50-5.27Q-114.60-5.27-113.93-4.91Q-113.25-4.54-112.82-4.07L-112.82-4.07L-113.49-3.26Q-113.87-3.68-114.36-3.93Q-114.86-4.18-115.48-4.18L-115.48-4.18Q-116.18-4.18-116.75-3.91Q-117.31-3.63-117.72-3.12Q-118.12-2.61-118.34-1.88Q-118.55-1.15-118.55-0.24L-118.55-0.24Q-118.55 0.69-118.34 1.43Q-118.12 2.16-117.73 2.68Q-117.34 3.21-116.79 3.49Q-116.23 3.77-115.53 3.77L-115.53 3.77Q-114.81 3.77-114.28 3.48Q-113.74 3.19-113.26 2.67L-113.26 2.67L-112.58 3.44Q-113.16 4.11-113.89 4.49Q-114.62 4.86-115.57 4.86Z"/><path fill="#000000" opacity="1" d="M-109.08-0.79L-109.08-0.79L-109.54 0.70L-106.60 0.70L-107.06-0.79Q-107.33-1.61-107.57-2.42Q-107.81-3.23-108.05-4.08L-108.05-4.08L-108.11-4.08Q-108.33-3.23-108.57-2.42Q-108.81-1.61-109.08-0.79ZM-110.79 4.68L-112.06 4.68L-108.75-5.09L-107.35-5.09L-104.04 4.68L-105.37 4.68L-106.29 1.70L-109.85 1.70L-110.79 4.68Z"/><path fill="#000000" opacity="1" d=""/><path fill="#000000" opacity="1" d="M-97.17 4.68L-99.67 4.68L-99.67-5.09L-97.23-5.09Q-94.96-5.09-93.79-3.84Q-92.61-2.59-92.61-0.25L-92.61-0.25Q-92.61 0.91-92.91 1.83Q-93.21 2.74-93.79 3.38Q-94.37 4.01-95.22 4.35Q-96.07 4.68-97.17 4.68L-97.17 4.68ZM-98.44-4.08L-98.44 3.67L-97.32 3.67Q-95.61 3.67-94.75 2.64Q-93.89 1.61-93.89-0.25L-93.89-0.25Q-93.89-2.11-94.75-3.10Q-95.61-4.08-97.32-4.08L-97.32-4.08L-98.44-4.08Z"/><path fill="#000000" opacity="1" d="M-84.73 4.68L-90.51 4.68L-90.51-5.09L-84.88-5.09L-84.88-4.05L-89.27-4.05L-89.27-0.98L-85.56-0.98L-85.56 0.08L-89.27 0.08L-89.27 3.62L-84.73 3.62L-84.73 4.68Z"/><path fill="#000000" opacity="1" d=""/><path fill="#000000" opacity="1" d="M-73.90 4.68L-79.68 4.68L-79.68-5.09L-74.05-5.09L-74.05-4.05L-78.44-4.05L-78.44-0.98L-74.73-0.98L-74.73 0.08L-78.44 0.08L-78.44 3.62L-73.90 3.62L-73.90 4.68Z"/><path fill="#000000" opacity="1" d="M-69.11 4.86L-69.11 4.86Q-70.14 4.86-71.02 4.47Q-71.90 4.08-72.54 3.41L-72.54 3.41L-71.80 2.55Q-71.27 3.10-70.57 3.44Q-69.86 3.77-69.10 3.77L-69.10 3.77Q-68.13 3.77-67.59 3.33Q-67.06 2.89-67.06 2.18L-67.06 2.18Q-67.06 1.80-67.18 1.54Q-67.31 1.28-67.53 1.10Q-67.74 0.91-68.04 0.76Q-68.34 0.61-68.68 0.45L-68.68 0.45L-70.08-0.16Q-70.42-0.31-70.78-0.52Q-71.14-0.73-71.42-1.03Q-71.71-1.32-71.88-1.73Q-72.06-2.14-72.06-2.68L-72.06-2.68Q-72.06-3.23-71.83-3.71Q-71.60-4.18-71.19-4.53Q-70.78-4.89-70.22-5.08Q-69.66-5.27-68.99-5.27L-68.99-5.27Q-68.12-5.27-67.37-4.94Q-66.63-4.60-66.10-4.07L-66.10-4.07L-66.77-3.26Q-67.22-3.69-67.77-3.94Q-68.31-4.18-68.99-4.18L-68.99-4.18Q-69.81-4.18-70.31-3.80Q-70.81-3.42-70.81-2.75L-70.81-2.75Q-70.81-2.40-70.67-2.15Q-70.53-1.91-70.29-1.72Q-70.05-1.53-69.77-1.39Q-69.49-1.25-69.19-1.13L-69.19-1.13L-67.80-0.53Q-67.39-0.36-67.01-0.12Q-66.64 0.11-66.37 0.41Q-66.10 0.72-65.95 1.13Q-65.79 1.54-65.79 2.07L-65.79 2.07Q-65.79 2.65-66.02 3.16Q-66.25 3.67-66.68 4.05Q-67.12 4.43-67.73 4.64Q-68.34 4.86-69.11 4.86Z"/><path fill="#000000" opacity="1" d="M-60.17 4.86L-60.17 4.86Q-61.10 4.86-61.87 4.52Q-62.65 4.17-63.22 3.53Q-63.79 2.88-64.11 1.93Q-64.43 0.99-64.43-0.21L-64.43-0.21Q-64.43-1.38-64.11-2.32Q-63.78-3.26-63.20-3.92Q-62.62-4.57-61.83-4.92Q-61.04-5.27-60.10-5.27L-60.10-5.27Q-59.21-5.27-58.53-4.91Q-57.85-4.54-57.42-4.07L-57.42-4.07L-58.09-3.26Q-58.47-3.68-58.97-3.93Q-59.46-4.18-60.08-4.18L-60.08-4.18Q-60.78-4.18-61.35-3.91Q-61.92-3.63-62.32-3.12Q-62.72-2.61-62.94-1.88Q-63.15-1.15-63.15-0.24L-63.15-0.24Q-63.15 0.69-62.94 1.43Q-62.72 2.16-62.33 2.68Q-61.95 3.21-61.39 3.49Q-60.83 3.77-60.13 3.77L-60.13 3.77Q-59.41 3.77-58.88 3.48Q-58.34 3.19-57.86 2.67L-57.86 2.67L-57.18 3.44Q-57.76 4.11-58.49 4.49Q-59.22 4.86-60.17 4.86Z"/><path fill="#000000" opacity="1" d="M-53.68-0.79L-53.68-0.79L-54.14 0.70L-51.20 0.70L-51.67-0.79Q-51.93-1.61-52.17-2.42Q-52.41-3.23-52.65-4.08L-52.65-4.08L-52.71-4.08Q-52.93-3.23-53.17-2.42Q-53.41-1.61-53.68-0.79ZM-55.39 4.68L-56.66 4.68L-53.35-5.09L-51.95-5.09L-48.64 4.68L-49.97 4.68L-50.89 1.70L-54.45 1.70L-55.39 4.68Z"/><path fill="#000000" opacity="1" d="M-41.74 4.68L-47.26 4.68L-47.26-5.09L-46.02-5.09L-46.02 3.62L-41.74 3.62L-41.74 4.68Z"/><path fill="#000000" opacity="1" d="M-38.29-0.79L-38.29-0.79L-38.75 0.70L-35.81 0.70L-36.27-0.79Q-36.54-1.61-36.78-2.42Q-37.02-3.23-37.26-4.08L-37.26-4.08L-37.32-4.08Q-37.54-3.23-37.78-2.42Q-38.02-1.61-38.29-0.79ZM-40.00 4.68L-41.27 4.68L-37.96-5.09L-36.56-5.09L-33.25 4.68L-34.58 4.68L-35.50 1.70L-39.06 1.70L-40.00 4.68Z"/><path fill="#000000" opacity="1" d="M-29.15 4.86L-29.15 4.86Q-30.18 4.86-31.06 4.47Q-31.94 4.08-32.58 3.41L-32.58 3.41L-31.83 2.55Q-31.31 3.10-30.60 3.44Q-29.90 3.77-29.14 3.77L-29.14 3.77Q-28.17 3.77-27.63 3.33Q-27.10 2.89-27.10 2.18L-27.10 2.18Q-27.10 1.80-27.22 1.54Q-27.35 1.28-27.56 1.10Q-27.78 0.91-28.08 0.76Q-28.38 0.61-28.72 0.45L-28.72 0.45L-30.12-0.16Q-30.46-0.31-30.82-0.52Q-31.18-0.73-31.46-1.03Q-31.74-1.32-31.92-1.73Q-32.10-2.14-32.10-2.68L-32.10-2.68Q-32.10-3.23-31.87-3.71Q-31.64-4.18-31.23-4.53Q-30.82-4.89-30.26-5.08Q-29.70-5.27-29.03-5.27L-29.03-5.27Q-28.15-5.27-27.41-4.94Q-26.66-4.60-26.14-4.07L-26.14-4.07L-26.81-3.26Q-27.26-3.69-27.80-3.94Q-28.35-4.18-29.03-4.18L-29.03-4.18Q-29.85-4.18-30.35-3.80Q-30.85-3.42-30.85-2.75L-30.85-2.75Q-30.85-2.40-30.71-2.15Q-30.57-1.91-30.33-1.72Q-30.09-1.53-29.81-1.39Q-29.52-1.25-29.23-1.13L-29.23-1.13L-27.84-0.53Q-27.42-0.36-27.05-0.12Q-26.68 0.11-26.41 0.41Q-26.14 0.72-25.99 1.13Q-25.83 1.54-25.83 2.07L-25.83 2.07Q-25.83 2.65-26.06 3.16Q-26.29 3.67-26.72 4.05Q-27.16 4.43-27.77 4.64Q-28.38 4.86-29.15 4.86Z"/><path fill="#000000" opacity="1" d=""/><path fill="#000000" opacity="1" d="M-19.69 4.68L-20.93 4.68L-20.93-5.09L-18.14-5.09Q-17.32-5.09-16.64-4.94Q-15.97-4.80-15.49-4.46Q-15.01-4.13-14.74-3.57Q-14.48-3.02-14.48-2.22L-14.48-2.22Q-14.48-1.44-14.74-0.88Q-15.00-0.31-15.47 0.06Q-15.95 0.43-16.61 0.62Q-17.28 0.81-18.08 0.81L-18.08 0.81L-19.69 0.81L-19.69 4.68ZM-19.69-4.10L-19.69-0.21L-18.23-0.21Q-16.95-0.21-16.33-0.69Q-15.71-1.18-15.71-2.22L-15.71-2.22Q-15.71-3.28-16.36-3.69Q-17.01-4.10-18.29-4.10L-18.29-4.10L-19.69-4.10Z"/><path fill="#000000" opacity="1" d="M-11.55-0.79L-11.55-0.79L-12.02 0.70L-9.08 0.70L-9.54-0.79Q-9.81-1.61-10.05-2.42Q-10.29-3.23-10.53-4.08L-10.53-4.08L-10.59-4.08Q-10.81-3.23-11.05-2.42Q-11.29-1.61-11.55-0.79ZM-13.27 4.68L-14.53 4.68L-11.23-5.09L-9.83-5.09L-6.52 4.68L-7.84 4.68L-8.77 1.70L-12.33 1.70L-13.27 4.68Z"/><path fill="#000000" opacity="1" d="M-3.90 4.68L-5.13 4.68L-5.13-5.09L-2.08-5.09Q-1.33-5.09-0.70-4.95Q-0.07-4.81 0.39-4.48Q0.84-4.16 1.10-3.63Q1.35-3.11 1.35-2.35L1.35-2.35Q1.35-1.20 0.75-0.52Q0.16 0.17-0.86 0.42L-0.86 0.42L1.63 4.68L0.23 4.68L-2.12 0.55L-3.90 0.55L-3.90 4.68ZM-3.90-4.10L-3.90-0.46L-2.26-0.46Q-1.11-0.46-0.50-0.93Q0.11-1.40 0.11-2.35L0.11-2.35Q0.11-3.32-0.50-3.71Q-1.11-4.10-2.26-4.10L-2.26-4.10L-3.90-4.10Z"/><path fill="#000000" opacity="1" d="M4.97-0.79L4.97-0.79L4.51 0.70L7.44 0.70L6.98-0.79Q6.71-1.61 6.47-2.42Q6.24-3.23 6.00-4.08L6.00-4.08L5.94-4.08Q5.71-3.23 5.48-2.42Q5.24-1.61 4.97-0.79ZM3.26 4.68L1.99 4.68L5.30-5.09L6.70-5.09L10.01 4.68L8.68 4.68L7.76 1.70L4.19 1.70L3.26 4.68Z"/><path fill="#000000" opacity="1" d=""/><path fill="#000000" opacity="1" d="M17.60 4.68L16.16 4.68L13.03-5.09L14.36-5.09L15.92 0.18Q16.19 1.06 16.39 1.80Q16.59 2.55 16.87 3.41L16.87 3.41L16.93 3.41Q17.20 2.55 17.41 1.80Q17.62 1.06 17.87 0.18L17.87 0.18L19.44-5.09L20.70-5.09L17.60 4.68Z"/><path fill="#000000" opacity="1" d="M25.50 4.86L25.50 4.86Q24.58 4.86 23.81 4.50Q23.04 4.14 22.49 3.48Q21.94 2.82 21.63 1.87Q21.33 0.93 21.33-0.25L21.33-0.25Q21.33-1.43 21.63-2.36Q21.94-3.29 22.49-3.94Q23.04-4.59 23.81-4.93Q24.58-5.27 25.50-5.27L25.50-5.27Q26.43-5.27 27.19-4.92Q27.96-4.57 28.52-3.92Q29.08-3.28 29.38-2.34Q29.69-1.41 29.69-0.25L29.69-0.25Q29.69 0.93 29.38 1.87Q29.08 2.82 28.52 3.48Q27.96 4.14 27.19 4.50Q26.43 4.86 25.50 4.86ZM25.50 3.77L25.50 3.77Q26.16 3.77 26.69 3.49Q27.21 3.21 27.59 2.68Q27.97 2.15 28.18 1.41Q28.39 0.67 28.39-0.25L28.39-0.25Q28.39-1.16 28.18-1.89Q27.97-2.62 27.59-3.13Q27.21-3.63 26.69-3.91Q26.16-4.18 25.50-4.18L25.50-4.18Q24.85-4.18 24.32-3.91Q23.79-3.63 23.41-3.13Q23.03-2.62 22.82-1.89Q22.61-1.16 22.61-0.25L22.61-0.25Q22.61 0.67 22.82 1.41Q23.03 2.15 23.41 2.68Q23.79 3.21 24.32 3.49Q24.85 3.77 25.50 3.77Z"/><path fill="#000000" opacity="1" d="M37.30 4.68L31.79 4.68L31.79-5.09L33.03-5.09L33.03 3.62L37.30 3.62L37.30 4.68Z"/><path fill="#000000" opacity="1" d="M42.07 4.86L42.07 4.86Q41.33 4.86 40.68 4.64Q40.03 4.43 39.56 3.93Q39.09 3.43 38.82 2.62Q38.55 1.82 38.55 0.64L38.55 0.64L38.55-5.09L39.79-5.09L39.79 0.67Q39.79 1.55 39.97 2.15Q40.15 2.74 40.45 3.10Q40.76 3.46 41.18 3.62Q41.59 3.77 42.07 3.77L42.07 3.77Q42.56 3.77 42.98 3.62Q43.40 3.46 43.71 3.10Q44.02 2.74 44.20 2.15Q44.38 1.55 44.38 0.67L44.38 0.67L44.38-5.09L45.57-5.09L45.57 0.64Q45.57 1.82 45.30 2.62Q45.04 3.43 44.57 3.93Q44.10 4.43 43.46 4.64Q42.82 4.86 42.07 4.86Z"/><path fill="#000000" opacity="1" d="M49.39 4.68L48.21 4.68L48.21-5.09L49.49-5.09L53.02 1.05L54.08 3.07L54.14 3.07Q54.09 2.33 54.04 1.53Q53.99 0.73 53.99-0.04L53.99-0.04L53.99-5.09L55.17-5.09L55.17 4.68L53.89 4.68L50.34-1.47L49.28-3.48L49.22-3.48Q49.28-2.74 49.33-1.97Q49.39-1.20 49.39-0.43L49.39-0.43L49.39 4.68Z"/><path fill="#000000" opacity="1" d="M61.13 4.68L59.88 4.68L59.88-4.05L56.93-4.05L56.93-5.09L64.08-5.09L64.08-4.05L61.13-4.05L61.13 4.68Z"/><path fill="#000000" opacity="1" d="M66.92-0.79L66.92-0.79L66.46 0.70L69.40 0.70L68.93-0.79Q68.67-1.61 68.43-2.42Q68.19-3.23 67.95-4.08L67.95-4.08L67.89-4.08Q67.67-3.23 67.43-2.42Q67.19-1.61 66.92-0.79ZM65.21 4.68L63.94 4.68L67.25-5.09L68.65-5.09L71.96 4.68L70.63 4.68L69.71 1.70L66.15 1.70L65.21 4.68ZM69.95-7.42L67.68-5.70L67.13-6.33L69.25-8.24L69.95-7.42Z"/><path fill="#000000" opacity="1" d="M74.58 4.68L73.35 4.68L73.35-5.09L76.40-5.09Q77.14-5.09 77.78-4.95Q78.41-4.81 78.87-4.48Q79.32-4.16 79.57-3.63Q79.83-3.11 79.83-2.35L79.83-2.35Q79.83-1.20 79.23-0.52Q78.63 0.17 77.62 0.42L77.62 0.42L80.11 4.68L78.71 4.68L76.35 0.55L74.58 0.55L74.58 4.68ZM74.58-4.10L74.58-0.46L76.22-0.46Q77.37-0.46 77.98-0.93Q78.59-1.40 78.59-2.35L78.59-2.35Q78.59-3.32 77.98-3.71Q77.37-4.10 76.22-4.10L76.22-4.10L74.58-4.10Z"/><path fill="#000000" opacity="1" d="M83.06 4.68L81.82 4.68L81.82-5.09L83.06-5.09L83.06 4.68Z"/><path fill="#000000" opacity="1" d="M89.35 4.86L89.35 4.86Q88.42 4.86 87.66 4.50Q86.89 4.14 86.34 3.48Q85.79 2.82 85.48 1.87Q85.18 0.93 85.18-0.25L85.18-0.25Q85.18-1.43 85.48-2.36Q85.79-3.29 86.34-3.94Q86.89-4.59 87.66-4.93Q88.42-5.27 89.35-5.27L89.35-5.27Q90.27-5.27 91.04-4.92Q91.81-4.57 92.36-3.92Q92.92-3.28 93.23-2.34Q93.53-1.41 93.53-0.25L93.53-0.25Q93.53 0.93 93.23 1.87Q92.92 2.82 92.36 3.48Q91.81 4.14 91.04 4.50Q90.27 4.86 89.35 4.86ZM89.35 3.77L89.35 3.77Q90.00 3.77 90.53 3.49Q91.06 3.21 91.44 2.68Q91.82 2.15 92.03 1.41Q92.24 0.67 92.24-0.25L92.24-0.25Q92.24-1.16 92.03-1.89Q91.82-2.62 91.44-3.13Q91.06-3.63 90.53-3.91Q90.00-4.18 89.35-4.18L89.35-4.18Q88.69-4.18 88.17-3.91Q87.64-3.63 87.26-3.13Q86.88-2.62 86.67-1.89Q86.46-1.16 86.46-0.25L86.46-0.25Q86.46 0.67 86.67 1.41Q86.88 2.15 87.26 2.68Q87.64 3.21 88.17 3.49Q88.69 3.77 89.35 3.77Z"/><path fill="#000000" opacity="1" d="M101.14 4.86L101.14 4.86Q100.11 4.86 99.23 4.47Q98.35 4.08 97.71 3.41L97.71 3.41L98.46 2.55Q98.98 3.10 99.69 3.44Q100.39 3.77 101.15 3.77L101.15 3.77Q102.12 3.77 102.66 3.33Q103.19 2.89 103.19 2.18L103.19 2.18Q103.19 1.80 103.07 1.54Q102.94 1.28 102.72 1.10Q102.51 0.91 102.21 0.76Q101.91 0.61 101.57 0.45L101.57 0.45L100.17-0.16Q99.83-0.31 99.47-0.52Q99.11-0.73 98.83-1.03Q98.54-1.32 98.37-1.73Q98.19-2.14 98.19-2.68L98.19-2.68Q98.19-3.23 98.42-3.71Q98.65-4.18 99.06-4.53Q99.47-4.89 100.03-5.08Q100.59-5.27 101.26-5.27L101.26-5.27Q102.14-5.27 102.88-4.94Q103.62-4.60 104.15-4.07L104.15-4.07L103.48-3.26Q103.03-3.69 102.48-3.94Q101.94-4.18 101.26-4.18L101.26-4.18Q100.44-4.18 99.94-3.80Q99.44-3.42 99.44-2.75L99.44-2.75Q99.44-2.40 99.58-2.15Q99.72-1.91 99.96-1.72Q100.20-1.53 100.48-1.39Q100.76-1.25 101.06-1.13L101.06-1.13L102.45-0.53Q102.87-0.36 103.24-0.12Q103.61 0.11 103.88 0.41Q104.15 0.72 104.30 1.13Q104.46 1.54 104.46 2.07L104.46 2.07Q104.46 2.65 104.23 3.16Q104.00 3.67 103.57 4.05Q103.13 4.43 102.52 4.64Q101.91 4.86 101.14 4.86Z"/></g>
</g>
</svg>